<?xml version="1.0" encoding="UTF-8" standalone="no"?>
<svg
   xmlns:dc="http://purl.org/dc/elements/1.1/"
   xmlns:cc="http://creativecommons.org/ns#"
   xmlns:rdf="http://www.w3.org/1999/02/22-rdf-syntax-ns#"
   xmlns:svg="http://www.w3.org/2000/svg"
   xmlns="http://www.w3.org/2000/svg"
   id="svg8"
   version="1.1"
   viewBox="0 0 135.46666 135.46667"
   height="512"
   width="512">
  <defs
     id="defs2" />
  <metadata
     id="metadata5">
    <rdf:RDF>
      <cc:Work
         rdf:about="">
        <dc:format>image/svg+xml</dc:format>
        <dc:type
           rdf:resource="http://purl.org/dc/dcmitype/StillImage" />
        <dc:title></dc:title>
      </cc:Work>
    </rdf:RDF>
  </metadata>
  <g
     transform="translate(0,-161.53332)"
     id="layer1">
    <path
       id="path839"
       d="m 33.866666,195.39999 v 67.73333 H 101.6 v -67.73333 z"
       style="fill:none;fill-rule:evenodd;stroke:#ffffff;stroke-width:0.26458332px;stroke-linecap:butt;stroke-linejoin:miter;stroke-opacity:1" />
    <path
       id="path841"
       d="m 67.733332,195.39999 v 67.73333"
       style="fill:none;fill-rule:evenodd;stroke:#ffffff;stroke-width:0.26458332px;stroke-linecap:butt;stroke-linejoin:miter;stroke-opacity:1" />
    <path
       id="path843"
       d="M 101.6,229.26665 H 33.866666"
       style="fill:none;fill-rule:evenodd;stroke:#ffffff;stroke-width:0.26458332px;stroke-linecap:butt;stroke-linejoin:miter;stroke-opacity:1" />
    <path
       id="path845"
       d="M 33.866666,212.33332 H 101.6"
       style="fill:none;fill-rule:evenodd;stroke:#ffffff;stroke-width:0.26458332px;stroke-linecap:butt;stroke-linejoin:miter;stroke-opacity:1" />
    <path
       id="path847"
       d="M 33.866666,246.19999 H 101.6"
       style="fill:none;fill-rule:evenodd;stroke:#ffffff;stroke-width:0.26458332px;stroke-linecap:butt;stroke-linejoin:miter;stroke-opacity:1" />
    <path
       id="path849"
       d="m 84.666666,195.39999 v 67.73333"
       style="fill:none;fill-rule:evenodd;stroke:#ffffff;stroke-width:0.26458332px;stroke-linecap:butt;stroke-linejoin:miter;stroke-opacity:1" />
    <path
       id="path851"
       d="m 50.799999,195.39999 v 67.73333"
       style="fill:none;fill-rule:evenodd;stroke:#ffffff;stroke-width:0.26458332px;stroke-linecap:butt;stroke-linejoin:miter;stroke-opacity:1" />
    <path
       id="path853"
       d="m 93.133333,254.66665 h -16.93333 v -16.93334 h 16.93333 v -33.86666 h -16.93333 v 16.93333 h -16.93334 v -16.93333 h -16.93333 v 33.86666 h 16.93333 v 16.93334 h -16.93333"
       style="fill:none;fill-rule:evenodd;stroke:#ffffff;stroke-width:0.26458332px;stroke-linecap:butt;stroke-linejoin:miter;stroke-opacity:1" />
    <g
       id="text857"
       style="font-style:normal;font-variant:normal;font-weight:normal;font-stretch:normal;font-size:5.64444447px;line-height:125%;font-family:'Latin Modern Roman';-inkscape-font-specification:'Latin Modern Roman, ';text-align:center;letter-spacing:0px;word-spacing:0px;text-anchor:middle;fill:#ffffff;fill-opacity:1;stroke:none;stroke-width:0.26458332px;stroke-linecap:butt;stroke-linejoin:miter;stroke-opacity:1"
       aria-label="(0,0)">
      <path
         id="path909"
         style="font-size:5.64444447px;fill:#ffffff;fill-opacity:1;stroke-width:0.26458332px"
         d="m 29.936191,192.52132 c 0,-0.0169 0,-0.0282 -0.09596,-0.12417 -0.705556,-0.7112 -0.886178,-1.778 -0.886178,-2.6416 0,-0.98214 0.214489,-1.96427 0.908755,-2.66983 0.07338,-0.0677 0.07338,-0.079 0.07338,-0.096 0,-0.0395 -0.02258,-0.0564 -0.05644,-0.0564 -0.05644,0 -0.564445,0.38383 -0.897467,1.10067 -0.287867,0.62089 -0.3556,1.24742 -0.3556,1.72156 0,0.44026 0.06209,1.12324 0.372533,1.76106 0.338667,0.69427 0.824089,1.06116 0.880534,1.06116 0.03387,0 0.05644,-0.0169 0.05644,-0.0564 z" />
      <path
         id="path911"
         style="font-size:5.64444447px;fill:#ffffff;fill-opacity:1;stroke-width:0.26458332px"
         d="m 32.858162,189.36043 c 0,-0.45155 -0.02822,-0.90311 -0.225778,-1.3208 -0.259645,-0.54186 -0.722489,-0.63217 -0.959556,-0.63217 -0.338666,0 -0.750711,0.14675 -0.982133,0.67169 -0.180622,0.38946 -0.208845,0.82973 -0.208845,1.28128 0,0.42334 0.02258,0.93134 0.254,1.36032 0.242712,0.4572 0.654756,0.57008 0.931334,0.57008 0.3048,0 0.733778,-0.11853 0.982133,-0.65475 0.180622,-0.38947 0.208845,-0.82973 0.208845,-1.27565 z m -0.468489,-0.0677 c 0,0.42333 0,0.80716 -0.06209,1.1684 -0.08467,0.53622 -0.4064,0.70556 -0.6604,0.70556 -0.220134,0 -0.553156,-0.14111 -0.654756,-0.68298 -0.06209,-0.33867 -0.06209,-0.85796 -0.06209,-1.19098 0,-0.36124 0,-0.73378 0.04516,-1.03858 0.107244,-0.67169 0.530578,-0.72249 0.671689,-0.72249 0.186266,0 0.5588,0.1016 0.666044,0.6604 0.05645,0.31609 0.05645,0.74507 0.05645,1.10067 z" />
      <path
         id="path913"
         style="font-size:5.64444447px;fill:#ffffff;fill-opacity:1;stroke-width:0.26458332px"
         d="m 34.229761,191.16101 c 0,-0.36124 -0.135466,-0.59266 -0.361244,-0.59266 -0.197556,0 -0.299156,0.1524 -0.299156,0.29915 0,0.14676 0.09596,0.29916 0.299156,0.29916 0.08467,0 0.163689,-0.0339 0.225778,-0.0903 0.01129,0.44591 -0.146756,0.79022 -0.395111,1.05551 -0.03387,0.0339 -0.03951,0.0395 -0.03951,0.0621 0,0.0395 0.02822,0.0621 0.05644,0.0621 0.06773,0 0.513644,-0.44591 0.513644,-1.09502 z" />
      <path
         id="path915"
         style="font-size:5.64444447px;fill:#ffffff;fill-opacity:1;stroke-width:0.26458332px"
         d="m 37.245835,189.36043 c 0,-0.45155 -0.02822,-0.90311 -0.225778,-1.3208 -0.259644,-0.54186 -0.722489,-0.63217 -0.959555,-0.63217 -0.338667,0 -0.750711,0.14675 -0.982134,0.67169 -0.180622,0.38946 -0.208844,0.82973 -0.208844,1.28128 0,0.42334 0.02258,0.93134 0.254,1.36032 0.242711,0.4572 0.654756,0.57008 0.931333,0.57008 0.3048,0 0.733778,-0.11853 0.982134,-0.65475 0.180622,-0.38947 0.208844,-0.82973 0.208844,-1.27565 z m -0.468489,-0.0677 c 0,0.42333 0,0.80716 -0.06209,1.1684 -0.08467,0.53622 -0.4064,0.70556 -0.6604,0.70556 -0.220133,0 -0.553155,-0.14111 -0.654755,-0.68298 -0.06209,-0.33867 -0.06209,-0.85796 -0.06209,-1.19098 0,-0.36124 0,-0.73378 0.04516,-1.03858 0.107245,-0.67169 0.530578,-0.72249 0.671689,-0.72249 0.186267,0 0.5588,0.1016 0.666045,0.6604 0.05644,0.31609 0.05644,0.74507 0.05644,1.10067 z" />
      <path
         id="path917"
         style="font-size:5.64444447px;fill:#ffffff;fill-opacity:1;stroke-width:0.26458332px"
         d="m 39.102857,189.75555 c 0,-0.44027 -0.06209,-1.12325 -0.372533,-1.76107 -0.338667,-0.69427 -0.824089,-1.06116 -0.880534,-1.06116 -0.03387,0 -0.05644,0.0226 -0.05644,0.0564 0,0.0169 0,0.0282 0.107244,0.12982 0.553156,0.5588 0.874889,1.45627 0.874889,2.63596 0,0.9652 -0.208844,1.95862 -0.908755,2.66982 -0.07338,0.0677 -0.07338,0.079 -0.07338,0.096 0,0.0339 0.02258,0.0564 0.05644,0.0564 0.05645,0 0.564445,-0.38382 0.897467,-1.10067 0.287867,-0.62089 0.3556,-1.24742 0.3556,-1.72155 z" />
    </g>
    <g
       id="text861"
       style="font-style:normal;font-variant:normal;font-weight:normal;font-stretch:normal;font-size:5.64444447px;line-height:125%;font-family:'Latin Modern Roman';-inkscape-font-specification:'Latin Modern Roman, ';text-align:center;letter-spacing:0px;word-spacing:0px;text-anchor:middle;fill:#ffffff;fill-opacity:1;stroke:none;stroke-width:0.26458332px;stroke-linecap:butt;stroke-linejoin:miter;stroke-opacity:1"
       aria-label="(x, y)">
      <path
         id="path898"
         style="font-size:5.64444447px;fill:#ffffff;stroke-width:0.26458332px"
         d="m 96.572606,272.95458 c 0,-0.0169 0,-0.0282 -0.09595,-0.12418 -0.705556,-0.7112 -0.886178,-1.778 -0.886178,-2.6416 0,-0.98213 0.214489,-1.96426 0.908756,-2.66982 0.07338,-0.0677 0.07338,-0.079 0.07338,-0.096 0,-0.0395 -0.02258,-0.0564 -0.05644,-0.0564 -0.05644,0 -0.564444,0.38382 -0.897467,1.10067 -0.287866,0.62089 -0.3556,1.24742 -0.3556,1.72155 0,0.44027 0.06209,1.12325 0.372534,1.76107 0.338666,0.69427 0.824089,1.06116 0.880533,1.06116 0.03387,0 0.05644,-0.0169 0.05644,-0.0564 z" />
      <path
         id="path900"
         style="font-size:5.64444447px;fill:#ffffff;stroke-width:0.26458332px"
         d="m 99.810666,271.59991 v -0.17497 c -0.3048,0 -0.4064,-0.0113 -0.536223,-0.17498 l -0.756355,-0.97649 c 0.169333,-0.21449 0.383822,-0.49107 0.519289,-0.63782 0.174977,-0.2032 0.4064,-0.28787 0.671689,-0.29351 v -0.17498 c -0.146756,0.0113 -0.316089,0.0169 -0.462845,0.0169 -0.169333,0 -0.468489,-0.0113 -0.541867,-0.0169 v 0.17498 c 0.118534,0.0113 0.163689,0.0847 0.163689,0.17497 0,0.0903 -0.05644,0.16369 -0.08467,0.19756 l -0.349956,0.44027 -0.440267,-0.57009 c -0.0508,-0.0565 -0.0508,-0.0677 -0.0508,-0.1016 0,-0.0847 0.08467,-0.13547 0.197556,-0.14111 v -0.17498 l -0.6096,0.0169 c -0.118533,0 -0.383822,-0.006 -0.536222,-0.0169 v 0.17498 c 0.395111,0 0.400755,0.006 0.666044,0.34431 l 0.5588,0.72813 c -0.265289,0.33867 -0.265289,0.34996 -0.530578,0.67169 -0.270933,0.32738 -0.603955,0.33867 -0.722488,0.33867 v 0.17497 c 0.146755,-0.0113 0.321733,-0.0169 0.468488,-0.0169 l 0.536223,0.0169 v -0.17497 c -0.124178,-0.0169 -0.163689,-0.0903 -0.163689,-0.17498 0,-0.12418 0.163689,-0.31045 0.508,-0.71685 l 0.428978,0.56445 c 0.04516,0.0621 0.118533,0.1524 0.118533,0.18627 0,0.0508 -0.0508,0.13546 -0.2032,0.14111 v 0.17497 l 0.6096,-0.0169 c 0.1524,0 0.372533,0.006 0.541867,0.0169 z" />
      <path
         id="path902"
         style="font-size:5.64444447px;fill:#ffffff;stroke-width:0.26458332px"
         d="m 101.02052,271.59427 c 0,-0.36124 -0.13547,-0.59267 -0.36125,-0.59267 -0.19755,0 -0.29915,0.1524 -0.29915,0.29916 0,0.14675 0.096,0.29915 0.29915,0.29915 0.0847,0 0.16369,-0.0339 0.22578,-0.0903 0.0113,0.44591 -0.14676,0.79023 -0.39511,1.05551 -0.0339,0.0339 -0.0395,0.0395 -0.0395,0.0621 0,0.0395 0.0282,0.0621 0.0564,0.0621 0.0677,0 0.51365,-0.44591 0.51365,-1.09502 z" />
      <path
         id="path904"
         style="font-size:5.64444447px;fill:#ffffff;stroke-width:0.26458332px"
         d="m 106.19268,269.34214 v -0.17498 c -0.12982,0.0113 -0.29351,0.0169 -0.42333,0.0169 l -0.49107,-0.0169 v 0.17498 c 0.17498,0.006 0.26529,0.1016 0.26529,0.24271 0,0.0564 -0.006,0.0677 -0.0339,0.13546 l -0.57009,1.38854 -0.62653,-1.51836 c -0.0226,-0.0564 -0.0339,-0.079 -0.0339,-0.1016 0,-0.14675 0.20885,-0.14675 0.31609,-0.14675 v -0.17498 l -0.61524,0.0169 c -0.1524,0 -0.37818,-0.006 -0.54751,-0.0169 v 0.17498 c 0.27093,0 0.37817,0 0.4572,0.19755 l 0.84666,2.06022 -0.14111,0.33303 c -0.12418,0.31044 -0.28222,0.69991 -0.64346,0.69991 -0.0282,0 -0.15805,0 -0.26529,-0.1016 0.17497,-0.0226 0.22013,-0.14676 0.22013,-0.23707 0,-0.14675 -0.10724,-0.23707 -0.23707,-0.23707 -0.11289,0 -0.23706,0.0734 -0.23706,0.24272 0,0.254 0.23706,0.4572 0.51929,0.4572 0.3556,0 0.58702,-0.32174 0.72248,-0.64347 l 0.99343,-2.41018 c 0.14675,-0.3556 0.43462,-0.36124 0.52493,-0.36124 z" />
      <path
         id="path906"
         style="font-size:5.64444447px;fill:#ffffff;stroke-width:0.26458332px"
         d="m 107.93311,270.1888 c 0,-0.44026 -0.0621,-1.12324 -0.37253,-1.76106 -0.33867,-0.69427 -0.82409,-1.06116 -0.88054,-1.06116 -0.0339,0 -0.0564,0.0226 -0.0564,0.0564 0,0.0169 0,0.0282 0.10724,0.12982 0.55316,0.5588 0.87489,1.45626 0.87489,2.63595 0,0.9652 -0.20884,1.95863 -0.90875,2.66983 -0.0734,0.0677 -0.0734,0.079 -0.0734,0.096 0,0.0339 0.0226,0.0564 0.0564,0.0564 0.0564,0 0.56445,-0.38383 0.89747,-1.10067 0.28787,-0.62089 0.3556,-1.24742 0.3556,-1.72156 z" />
    </g>
    <path
       id="path863"
       d="m 29.633335,208.09993 v 25.4"
       style="fill:none;fill-rule:evenodd;stroke:#ffffff;stroke-width:0.26458332px;stroke-linecap:butt;stroke-linejoin:miter;stroke-opacity:1" />
    <path
       id="path865"
       d="m 27.516669,231.38327 2.116666,2.11666 2.116667,-2.11666"
       style="fill:none;fill-rule:evenodd;stroke:#ffffff;stroke-width:0.26458332px;stroke-linecap:butt;stroke-linejoin:miter;stroke-opacity:1" />
    <path
       id="path867"
       d="M 46.566661,191.16668 H 71.96666"
       style="fill:none;fill-rule:evenodd;stroke:#ffffff;stroke-width:0.26458332px;stroke-linecap:butt;stroke-linejoin:miter;stroke-opacity:1" />
    <path
       id="path869"
       d="m 69.849994,189.05002 2.116666,2.11666 -2.116666,2.11666"
       style="fill:none;fill-rule:evenodd;stroke:#ffffff;stroke-width:0.26458332px;stroke-linecap:butt;stroke-linejoin:miter;stroke-opacity:1" />
    <circle
       r="2.1166666"
       cy="195.40001"
       cx="33.866665"
       id="path892"
       style="opacity:1;fill:none;fill-opacity:1;stroke:#ffffff;stroke-width:0.26499999;stroke-linecap:square;stroke-linejoin:round;stroke-miterlimit:4;stroke-dasharray:none;stroke-dashoffset:0;stroke-opacity:1" />
    <circle
       r="2.1166666"
       cy="263.13336"
       cx="101.59999"
       id="path894"
       style="opacity:1;fill:none;fill-opacity:1;stroke:#ffffff;stroke-width:0.26499999;stroke-linecap:square;stroke-linejoin:round;stroke-miterlimit:4;stroke-dasharray:none;stroke-dashoffset:0;stroke-opacity:1" />
    <circle
       r="2.1166666"
       cy="254.66667"
       cx="42.333336"
       id="path896"
       style="opacity:1;fill:#ffffff;fill-opacity:1;stroke:#ffffff;stroke-width:0.26499999;stroke-linecap:square;stroke-linejoin:round;stroke-miterlimit:4;stroke-dasharray:none;stroke-dashoffset:0;stroke-opacity:1" />
  </g>
</svg>
